# xmcd
#
# Track frame offsets: 
#        150
#        9242
#        19250
#        28292
#        38015
#        50685
#        61025
#        73560
#        83887
#        95277
#        106380
#        119145
#        129377
#        139872
#        149540
#        159097
#        169517
#        178877
#        191075
#
# Disc length: 2693 seconds
#
# Revision: 3
# Processed by: cddbd v1.5.2PL0 Copyright (c) Steve Scherf et al.
# Submitted via: ExactAudioCopyFreeDBPlugin 1.0
#
DISCID=060a8313
DTITLE=Anita Carter - Apalachian Angel - CD7
DYEAR=2004
DGENRE=Country
TTITLE0=Rock Love
TTITLE1=Pledging My Love
TTITLE2=But I Love You Just The Same
TTITLE3=Lovey Lips
TTITLE4=Give Me Love
TTITLE5=Whose Baby Are You?
TTITLE6=Borrowed Diamonds
TTITLE7=Hi De Ank Tum
TTITLE8=At The Old Town Hall
TTITLE9=Jimmy Unknown
TTITLE10=Last Night In My Dreams
TTITLE11=Leroy
TTITLE12=Not Any More
TTITLE13=Losin' My Baby Again
TTITLE14=My Man True To Me
TTITLE15=I Just Won't Care Anymore
TTITLE16=(He Said Yeah) Baby You're The One
TTITLE17=My Sweet Love Ain't Around
TTITLE18=You Came To The Prom Alone
EXTD=
EXTT0=
EXTT1=
EXTT2=
EXTT3=
EXTT4=
EXTT5=
EXTT6=
EXTT7=
EXTT8=
EXTT9=
EXTT10=
EXTT11=
EXTT12=
EXTT13=
EXTT14=
EXTT15=
EXTT16=
EXTT17=
EXTT18=
PLAYORDER=
